<mxfile host="app.diagrams.net" modified="2023-09-22T01:23:08.147Z" agent="Mozilla/5.0 (Windows NT 10.0; Win64; x64) AppleWebKit/537.36 (KHTML, like Gecko) Chrome/116.0.0.0 Safari/537.36" version="21.8.0" etag="79BXqrMNIWObjDaRz3tO" type="device">
  <diagram id="ZLFiNHzcSWDznpScaFEh" name="페이지-1">
    <mxGraphModel dx="3587" dy="2938" grid="1" gridSize="10" guides="1" tooltips="1" connect="1" arrows="1" fold="1" page="0" pageScale="1" pageWidth="827" pageHeight="1169" background="none" math="0" shadow="0">
      <root>
        <mxCell id="0" />
        <mxCell id="1" parent="0" />
        <mxCell id="node7" value="&lt;p style=&quot;margin:0px;margin-top:4px;text-align:center;&quot;&gt;&lt;b&gt;Vote&lt;/b&gt;&lt;/p&gt;&lt;hr size=&quot;1&quot;/&gt;&lt;p style=&quot;margin:0 0 0 4px;line-height:1.6;&quot;&gt;+ getVisited(): int&lt;br/&gt;+ setUseYn(boolean): void&lt;br/&gt;+ setStateYn(boolean): void&lt;br/&gt;+ setVno(int): void&lt;br/&gt;+ equals(Object): boolean&lt;br/&gt;+ setStartDate(String): void&lt;br/&gt;+ getVno(): int&lt;br/&gt;+ getTitle(): String&lt;br/&gt;+ toString(): String&lt;br/&gt;+ setVisited(int): void&lt;br/&gt;+ getAddPt(): int&lt;br/&gt;+ setFinishDate(String): void&lt;br/&gt;+ hashCode(): int&lt;br/&gt;+ setContent(String): void&lt;br/&gt;+ setAddPt(int): void&lt;br/&gt;+ setTitle(String): void&lt;br/&gt;+ getContent(): String&lt;br/&gt;+ getRegDate(): String&lt;br/&gt;+ getStartDate(): String&lt;br/&gt;+ setRegDate(String): void&lt;br/&gt;# canEqual(Object): boolean&lt;br/&gt;+ getFinishDate(): String&lt;br/&gt;+ isUseYn(): boolean&lt;br/&gt;+ isStateYn(): boolean&lt;/p&gt;" style="verticalAlign=top;align=left;overflow=fill;fontSize=14;fontFamily=Helvetica;html=1;rounded=0;shadow=0;comic=0;labelBackgroundColor=none;strokeWidth=1;" parent="1" vertex="1">
          <mxGeometry x="226" y="-292" width="211" height="583" as="geometry" />
        </mxCell>
        <mxCell id="E97W9UNi8Z0Mg1XNLfdA-1" style="edgeStyle=orthogonalEdgeStyle;rounded=1;orthogonalLoop=1;jettySize=auto;html=1;exitX=0.5;exitY=1;exitDx=0;exitDy=0;entryX=0.5;entryY=0;entryDx=0;entryDy=0;" edge="1" parent="1" source="node8" target="node7">
          <mxGeometry relative="1" as="geometry" />
        </mxCell>
        <mxCell id="E97W9UNi8Z0Mg1XNLfdA-3" style="edgeStyle=orthogonalEdgeStyle;rounded=1;orthogonalLoop=1;jettySize=auto;html=1;exitX=0.5;exitY=1;exitDx=0;exitDy=0;entryX=0.5;entryY=0;entryDx=0;entryDy=0;" edge="1" parent="1" source="node8" target="node6">
          <mxGeometry relative="1" as="geometry" />
        </mxCell>
        <mxCell id="E97W9UNi8Z0Mg1XNLfdA-4" style="edgeStyle=orthogonalEdgeStyle;rounded=1;orthogonalLoop=1;jettySize=auto;html=1;exitX=0.5;exitY=1;exitDx=0;exitDy=0;entryX=0.5;entryY=0;entryDx=0;entryDy=0;" edge="1" parent="1" source="node8" target="node5">
          <mxGeometry relative="1" as="geometry">
            <Array as="points">
              <mxPoint x="524" y="-339" />
              <mxPoint x="1000" y="-339" />
            </Array>
          </mxGeometry>
        </mxCell>
        <mxCell id="node8" value="&lt;p style=&quot;margin:0px;margin-top:4px;text-align:center;&quot;&gt;&lt;b&gt;VoteController&lt;/b&gt;&lt;/p&gt;&lt;hr size=&quot;1&quot;/&gt;&lt;p style=&quot;margin:0 0 0 4px;line-height:1.6;&quot;&gt;+ voteList(HttpServletRequest, Model): String&lt;br/&gt;+ voteDetail(HttpServletRequest, Model): String&lt;br/&gt;+ voteInsert(HttpServletRequest, Model): String&lt;br/&gt;+ voteUseUpdate(int, Model): String&lt;br/&gt;+ voteAnswerDelete(int, int, Model): String&lt;br/&gt;+ voteUpdate(HttpServletRequest, Model): String&lt;br/&gt;+ voteFinalUpdate(int, Model): String&lt;br/&gt;+ voteMyList(HttpServletRequest, Model): String&lt;br/&gt;+ voteAnswerInsert(HttpServletRequest, Model): String&lt;br/&gt;+ voteUserInsert(int, int, int, HttpServletRequest, HttpServletResponse): String&lt;br/&gt;+ voteAnswerUpdate(HttpServletRequest, Model): String&lt;br/&gt;+ voteDelete(int, Model): String&lt;/p&gt;" style="verticalAlign=top;align=left;overflow=fill;fontSize=14;fontFamily=Helvetica;html=1;rounded=0;shadow=0;comic=0;labelBackgroundColor=none;strokeWidth=1;" parent="1" vertex="1">
          <mxGeometry x="297" y="-692" width="455" height="307" as="geometry" />
        </mxCell>
        <mxCell id="node4" value="&lt;p style=&quot;margin:0px;margin-top:4px;text-align:center;&quot;&gt;&lt;b&gt;VoteCountVo&lt;/b&gt;&lt;/p&gt;&lt;hr size=&quot;1&quot;/&gt;&lt;p style=&quot;margin:0 0 0 4px;line-height:1.6;&quot;&gt;+ getCnt(): int&lt;br/&gt;+ hashCode(): int&lt;br/&gt;+ getLno(): int&lt;br/&gt;+ getVno(): int&lt;br/&gt;# canEqual(Object): boolean&lt;br/&gt;+ getTitle(): String&lt;br/&gt;+ setLno(int): void&lt;br/&gt;+ setVno(int): void&lt;br/&gt;+ toString(): String&lt;br/&gt;+ setTitle(String): void&lt;br/&gt;+ setCnt(int): void&lt;br/&gt;+ equals(Object): boolean&lt;/p&gt;" style="verticalAlign=top;align=left;overflow=fill;fontSize=14;fontFamily=Helvetica;html=1;rounded=0;shadow=0;comic=0;labelBackgroundColor=none;strokeWidth=1;" parent="1" vertex="1">
          <mxGeometry x="451" y="-292" width="209" height="307" as="geometry" />
        </mxCell>
        <mxCell id="node0" value="&lt;p style=&quot;margin:0px;margin-top:4px;text-align:center;&quot;&gt;&lt;i&gt;&amp;lt;&amp;lt;interface&amp;gt;&amp;gt;&lt;/i&gt;&lt;br/&gt;&lt;b&gt;VoteDAO&lt;/b&gt;&lt;/p&gt;&lt;hr size=&quot;1&quot;/&gt;&lt;p style=&quot;margin:0 0 0 4px;line-height:1.6;&quot;&gt;+ voteUpdateUse(int): void&lt;br/&gt;+ voteEdit(Vote): void&lt;br/&gt;+ voteVisitCount(int): void&lt;br/&gt;+ voteAnswerInsert(VoteList): void&lt;br/&gt;+ voteMyList(String): List&amp;lt;Vote&amp;gt;&lt;br/&gt;+ voteUpdateState(int): void&lt;br/&gt;+ voteAllListForAdmin(Page): List&amp;lt;Vote&amp;gt;&lt;br/&gt;+ voteMaxCountList(int): VoteCountVo&lt;br/&gt;+ voteUserDelete(VoteUser): void&lt;br/&gt;+ voteAllList(Page): List&amp;lt;Vote&amp;gt;&lt;br/&gt;+ voteAnswerDelete(int): void&lt;br/&gt;+ voteDetail(int): Vote&lt;br/&gt;+ voteUserCnt(int): int&lt;br/&gt;+ totalCountForAdmin(Page): int&lt;br/&gt;+ voteUserList(VoteUser): VoteUser&lt;br/&gt;+ voteCountList(int): List&amp;lt;VoteCountVo&amp;gt;&lt;br/&gt;+ voteAllAnswerDelete(int): void&lt;br/&gt;+ voteInsert(Vote): void&lt;br/&gt;+ voteFinalInsert(VoteCountVo): void&lt;br/&gt;+ voteAnswerEdit(VoteList): void&lt;br/&gt;+ voteUserInsert(VoteUser): void&lt;br/&gt;+ totalCount(Page): int&lt;br/&gt;+ voteDelete(int): void&lt;br/&gt;+ voteAnswerList(int): List&amp;lt;VoteList&amp;gt;&lt;br/&gt;+ voteCountCnt(int): int&lt;/p&gt;" style="verticalAlign=top;align=left;overflow=fill;fontSize=14;fontFamily=Helvetica;html=1;rounded=0;shadow=0;comic=0;labelBackgroundColor=none;strokeWidth=1;" parent="1" vertex="1">
          <mxGeometry x="1130" y="-970" width="291" height="620" as="geometry" />
        </mxCell>
        <mxCell id="node2" value="&lt;p style=&quot;margin:0px;margin-top:4px;text-align:center;&quot;&gt;&lt;b&gt;VoteDAOImpl&lt;/b&gt;&lt;/p&gt;&lt;hr size=&quot;1&quot;/&gt;&lt;p style=&quot;margin:0 0 0 4px;line-height:1.6;&quot;&gt;+ totalCount(Page): int&lt;br/&gt;+ voteEdit(Vote): void&lt;br/&gt;+ voteAnswerList(int): List&amp;lt;VoteList&amp;gt;&lt;br/&gt;+ voteUserDelete(VoteUser): void&lt;br/&gt;+ voteDetail(int): Vote&lt;br/&gt;+ voteAnswerEdit(VoteList): void&lt;br/&gt;+ voteMyList(String): List&amp;lt;Vote&amp;gt;&lt;br/&gt;+ voteMaxCountList(int): VoteCountVo&lt;br/&gt;+ totalCountForAdmin(Page): int&lt;br/&gt;+ voteUserCnt(int): int&lt;br/&gt;+ voteCountList(int): List&amp;lt;VoteCountVo&amp;gt;&lt;br/&gt;+ voteUpdateUse(int): void&lt;br/&gt;+ voteUserList(VoteUser): VoteUser&lt;br/&gt;+ voteCountCnt(int): int&lt;br/&gt;+ voteInsert(Vote): void&lt;br/&gt;+ voteAnswerDelete(int): void&lt;br/&gt;+ voteAnswerInsert(VoteList): void&lt;br/&gt;+ voteDelete(int): void&lt;br/&gt;+ voteVisitCount(int): void&lt;br/&gt;+ voteAllAnswerDelete(int): void&lt;br/&gt;+ voteAllList(Page): List&amp;lt;Vote&amp;gt;&lt;br/&gt;+ voteUserInsert(VoteUser): void&lt;br/&gt;+ voteUpdateState(int): void&lt;br/&gt;+ voteFinalInsert(VoteCountVo): void&lt;br/&gt;+ voteAllListForAdmin(Page): List&amp;lt;Vote&amp;gt;&lt;/p&gt;" style="verticalAlign=top;align=left;overflow=fill;fontSize=14;fontFamily=Helvetica;html=1;rounded=0;shadow=0;comic=0;labelBackgroundColor=none;strokeWidth=1;" parent="1" vertex="1">
          <mxGeometry x="1130" y="-292" width="291" height="606" as="geometry" />
        </mxCell>
        <mxCell id="node5" value="&lt;p style=&quot;margin:0px;margin-top:4px;text-align:center;&quot;&gt;&lt;b&gt;VoteList&lt;/b&gt;&lt;/p&gt;&lt;hr size=&quot;1&quot;/&gt;&lt;p style=&quot;margin:0 0 0 4px;line-height:1.6;&quot;&gt;+ getLno(): int&lt;br/&gt;+ getVno(): int&lt;br/&gt;+ getTitle(): String&lt;br/&gt;+ setLno(int): void&lt;br/&gt;+ toString(): String&lt;br/&gt;+ setVno(int): void&lt;br/&gt;+ setTitle(String): void&lt;br/&gt;+ equals(Object): boolean&lt;br/&gt;# canEqual(Object): boolean&lt;br/&gt;+ hashCode(): int&lt;/p&gt;" style="verticalAlign=top;align=left;overflow=fill;fontSize=14;fontFamily=Helvetica;html=1;rounded=0;shadow=0;comic=0;labelBackgroundColor=none;strokeWidth=1;" parent="1" vertex="1">
          <mxGeometry x="896" y="-292" width="209" height="261" as="geometry" />
        </mxCell>
        <mxCell id="node1" value="&lt;p style=&quot;margin:0px;margin-top:4px;text-align:center;&quot;&gt;&lt;i&gt;&amp;lt;&amp;lt;interface&amp;gt;&amp;gt;&lt;/i&gt;&lt;br/&gt;&lt;b&gt;VoteService&lt;/b&gt;&lt;/p&gt;&lt;hr size=&quot;1&quot;/&gt;&lt;p style=&quot;margin:0 0 0 4px;line-height:1.6;&quot;&gt;+ totalCount(Page): int&lt;br/&gt;+ voteUserCnt(int): int&lt;br/&gt;+ voteUserDelete(VoteUser): void&lt;br/&gt;+ voteInsert(Vote): void&lt;br/&gt;+ voteVisitCount(int): void&lt;br/&gt;+ voteAnswerList(int): List&amp;lt;VoteList&amp;gt;&lt;br/&gt;+ voteDetail(int): Vote&lt;br/&gt;+ voteUpdateUse(int): void&lt;br/&gt;+ voteDelete(int): void&lt;br/&gt;+ voteMaxCountList(int): VoteCountVo&lt;br/&gt;+ voteMyList(String): List&amp;lt;Vote&amp;gt;&lt;br/&gt;+ voteFinalInsert(VoteCountVo): void&lt;br/&gt;+ voteUpdateState(int): void&lt;br/&gt;+ voteAnswerInsert(VoteList): void&lt;br/&gt;+ voteUserInsert(VoteUser): void&lt;br/&gt;+ voteAnswerEdit(VoteList): void&lt;br/&gt;+ voteAllList(Page): List&amp;lt;Vote&amp;gt;&lt;br/&gt;+ voteAllListForAdmin(Page): List&amp;lt;Vote&amp;gt;&lt;br/&gt;+ voteUserList(VoteUser): VoteUser&lt;br/&gt;+ voteAllAnswerDelete(int): void&lt;br/&gt;+ voteCountCnt(int): int&lt;br/&gt;+ voteAnswerDelete(int): void&lt;br/&gt;+ totalCountForAdmin(Page): int&lt;br/&gt;+ voteEdit(Vote): void&lt;br/&gt;+ voteCountList(int): List&amp;lt;VoteCountVo&amp;gt;&lt;/p&gt;" style="verticalAlign=top;align=left;overflow=fill;fontSize=14;fontFamily=Helvetica;html=1;rounded=0;shadow=0;comic=0;labelBackgroundColor=none;strokeWidth=1;" parent="1" vertex="1">
          <mxGeometry x="-139" y="-980" width="291" height="616" as="geometry" />
        </mxCell>
        <mxCell id="node3" value="&lt;p style=&quot;margin:0px;margin-top:4px;text-align:center;&quot;&gt;&lt;b&gt;VoteServiceImpl&lt;/b&gt;&lt;/p&gt;&lt;hr size=&quot;1&quot;/&gt;&lt;p style=&quot;margin:0 0 0 4px;line-height:1.6;&quot;&gt;+ voteAnswerList(int): List&amp;lt;VoteList&amp;gt;&lt;br/&gt;+ voteMyList(String): List&amp;lt;Vote&amp;gt;&lt;br/&gt;+ voteUserList(VoteUser): VoteUser&lt;br/&gt;+ voteAllAnswerDelete(int): void&lt;br/&gt;+ voteMaxCountList(int): VoteCountVo&lt;br/&gt;+ voteAnswerInsert(VoteList): void&lt;br/&gt;+ totalCount(Page): int&lt;br/&gt;+ voteDetail(int): Vote&lt;br/&gt;+ voteAllList(Page): List&amp;lt;Vote&amp;gt;&lt;br/&gt;+ voteUpdateUse(int): void&lt;br/&gt;+ voteFinalInsert(VoteCountVo): void&lt;br/&gt;+ voteAnswerDelete(int): void&lt;br/&gt;+ voteVisitCount(int): void&lt;br/&gt;+ voteAllListForAdmin(Page): List&amp;lt;Vote&amp;gt;&lt;br/&gt;+ voteUserCnt(int): int&lt;br/&gt;+ voteUpdateState(int): void&lt;br/&gt;+ voteCountList(int): List&amp;lt;VoteCountVo&amp;gt;&lt;br/&gt;+ voteUserDelete(VoteUser): void&lt;br/&gt;+ voteInsert(Vote): void&lt;br/&gt;+ voteUserInsert(VoteUser): void&lt;br/&gt;+ voteCountCnt(int): int&lt;br/&gt;+ totalCountForAdmin(Page): int&lt;br/&gt;+ voteDelete(int): void&lt;br/&gt;+ voteEdit(Vote): void&lt;br/&gt;+ voteAnswerEdit(VoteList): void&lt;/p&gt;" style="verticalAlign=top;align=left;overflow=fill;fontSize=14;fontFamily=Helvetica;html=1;rounded=0;shadow=0;comic=0;labelBackgroundColor=none;strokeWidth=1;" parent="1" vertex="1">
          <mxGeometry x="-139" y="-292" width="291" height="606" as="geometry" />
        </mxCell>
        <mxCell id="node6" value="&lt;p style=&quot;margin:0px;margin-top:4px;text-align:center;&quot;&gt;&lt;b&gt;VoteUser&lt;/b&gt;&lt;/p&gt;&lt;hr size=&quot;1&quot;/&gt;&lt;p style=&quot;margin:0 0 0 4px;line-height:1.6;&quot;&gt;+ getUno(): int&lt;br/&gt;+ toString(): String&lt;br/&gt;+ getVno(): int&lt;br/&gt;+ getLno(): int&lt;br/&gt;+ getAuthor(): String&lt;br/&gt;+ hashCode(): int&lt;br/&gt;# canEqual(Object): boolean&lt;br/&gt;+ setUno(int): void&lt;br/&gt;+ setVno(int): void&lt;br/&gt;+ setLno(int): void&lt;br/&gt;+ setAuthor(String): void&lt;br/&gt;+ equals(Object): boolean&lt;/p&gt;" style="verticalAlign=top;align=left;overflow=fill;fontSize=14;fontFamily=Helvetica;html=1;rounded=0;shadow=0;comic=0;labelBackgroundColor=none;strokeWidth=1;" parent="1" vertex="1">
          <mxGeometry x="673" y="-292" width="209" height="307" as="geometry" />
        </mxCell>
        <mxCell id="edge2" value="" style="html=1;rounded=1;edgeStyle=orthogonalEdgeStyle;dashed=1;startArrow=none;endArrow=open;endSize=12;strokeColor=#000082;exitX=0.000;exitY=0.535;exitDx=0;exitDy=0;entryX=0.500;entryY=1.000;entryDx=0;entryDy=0;endFill=0;" parent="1" source="node2" target="node7" edge="1">
          <mxGeometry width="50" height="50" relative="1" as="geometry">
            <Array as="points">
              <mxPoint x="712" y="33" />
              <mxPoint x="712" y="318" />
              <mxPoint x="332" y="318" />
            </Array>
          </mxGeometry>
        </mxCell>
        <mxCell id="edge4" value="" style="html=1;rounded=1;edgeStyle=orthogonalEdgeStyle;dashed=1;startArrow=none;endArrow=open;endSize=12;strokeColor=#000082;exitX=0.500;exitY=0.000;exitDx=0;exitDy=0;entryX=0.500;entryY=0.000;entryDx=0;entryDy=0;endFill=0;" parent="1" source="node2" target="node4" edge="1">
          <mxGeometry width="50" height="50" relative="1" as="geometry">
            <Array as="points">
              <mxPoint x="1276" y="-314" />
              <mxPoint x="556" y="-314" />
            </Array>
          </mxGeometry>
        </mxCell>
        <mxCell id="edge0" value="" style="html=1;rounded=1;edgeStyle=orthogonalEdgeStyle;dashed=1;startArrow=none;endArrow=block;endSize=12;strokeColor=#008200;exitX=0.552;exitY=0.000;exitDx=0;exitDy=0;entryX=0.552;entryY=1.000;entryDx=0;entryDy=0;" parent="1" source="node2" target="node0" edge="1">
          <mxGeometry width="50" height="50" relative="1" as="geometry">
            <Array as="points" />
          </mxGeometry>
        </mxCell>
        <mxCell id="edge9" value="" style="html=1;rounded=1;edgeStyle=orthogonalEdgeStyle;dashed=1;startArrow=none;endArrow=open;endSize=12;strokeColor=#000082;exitX=0.000;exitY=0.560;exitDx=0;exitDy=0;entryX=0.500;entryY=1.000;entryDx=0;entryDy=0;endFill=0;" parent="1" source="node2" target="node5" edge="1">
          <mxGeometry width="50" height="50" relative="1" as="geometry">
            <Array as="points">
              <mxPoint x="1001" y="47" />
            </Array>
          </mxGeometry>
        </mxCell>
        <mxCell id="edge8" value="" style="html=1;rounded=1;edgeStyle=orthogonalEdgeStyle;dashed=1;startArrow=none;endArrow=open;endSize=12;strokeColor=#000082;exitX=0.500;exitY=1.000;exitDx=0;exitDy=0;entryX=0.500;entryY=1.000;entryDx=0;entryDy=0;endFill=0;" parent="1" source="node2" target="node6" edge="1">
          <mxGeometry width="50" height="50" relative="1" as="geometry">
            <Array as="points">
              <mxPoint x="1276" y="339" />
              <mxPoint x="778" y="339" />
            </Array>
          </mxGeometry>
        </mxCell>
        <mxCell id="edge3" value="" style="html=1;rounded=1;edgeStyle=orthogonalEdgeStyle;dashed=1;startArrow=none;endArrow=open;endSize=12;strokeColor=#000082;exitX=1.000;exitY=0.500;exitDx=0;exitDy=0;entryX=0.500;entryY=1.000;entryDx=0;entryDy=0;endFill=0;" parent="1" source="node3" target="node7" edge="1">
          <mxGeometry width="50" height="50" relative="1" as="geometry">
            <Array as="points">
              <mxPoint x="209" y="11" />
              <mxPoint x="209" y="318" />
              <mxPoint x="332" y="318" />
            </Array>
          </mxGeometry>
        </mxCell>
        <mxCell id="edge5" value="" style="html=1;rounded=1;edgeStyle=orthogonalEdgeStyle;dashed=1;startArrow=none;endArrow=open;endSize=12;strokeColor=#000082;exitX=0.500;exitY=0.000;exitDx=0;exitDy=0;entryX=0.500;entryY=0.000;entryDx=0;entryDy=0;endFill=0;" parent="1" source="node3" target="node4" edge="1">
          <mxGeometry width="50" height="50" relative="1" as="geometry">
            <Array as="points">
              <mxPoint x="6" y="-314" />
              <mxPoint x="555" y="-314" />
            </Array>
          </mxGeometry>
        </mxCell>
        <mxCell id="edge7" value="" style="html=1;rounded=1;edgeStyle=orthogonalEdgeStyle;dashed=1;startArrow=none;endArrow=open;endSize=12;strokeColor=#000082;exitX=0.448;exitY=1.000;exitDx=0;exitDy=0;entryX=0.500;entryY=1.000;entryDx=0;entryDy=0;endFill=0;" parent="1" source="node3" target="node5" edge="1">
          <mxGeometry width="50" height="50" relative="1" as="geometry">
            <Array as="points">
              <mxPoint x="-9" y="354" />
              <mxPoint x="855" y="354" />
              <mxPoint x="855" y="48" />
              <mxPoint x="1001" y="47" />
            </Array>
          </mxGeometry>
        </mxCell>
        <mxCell id="edge1" value="" style="html=1;rounded=1;edgeStyle=orthogonalEdgeStyle;dashed=1;startArrow=none;endArrow=block;endSize=12;strokeColor=#008200;exitX=0.448;exitY=0.000;exitDx=0;exitDy=0;entryX=0.448;entryY=1.000;entryDx=0;entryDy=0;" parent="1" source="node3" target="node1" edge="1">
          <mxGeometry width="50" height="50" relative="1" as="geometry">
            <Array as="points" />
          </mxGeometry>
        </mxCell>
        <mxCell id="edge6" value="" style="html=1;rounded=1;edgeStyle=orthogonalEdgeStyle;dashed=1;startArrow=none;endArrow=open;endSize=12;strokeColor=#000082;exitX=0.500;exitY=1.000;exitDx=0;exitDy=0;entryX=0.500;entryY=1.000;entryDx=0;entryDy=0;endFill=0;" parent="1" source="node3" target="node6" edge="1">
          <mxGeometry width="50" height="50" relative="1" as="geometry">
            <Array as="points">
              <mxPoint x="6" y="339" />
              <mxPoint x="778" y="339" />
            </Array>
          </mxGeometry>
        </mxCell>
        <mxCell id="E97W9UNi8Z0Mg1XNLfdA-6" style="edgeStyle=orthogonalEdgeStyle;rounded=1;orthogonalLoop=1;jettySize=auto;html=1;exitX=0.5;exitY=1;exitDx=0;exitDy=0;" edge="1" parent="1">
          <mxGeometry relative="1" as="geometry">
            <mxPoint x="524.4999999999998" y="-384" as="sourcePoint" />
            <mxPoint x="637" y="-294" as="targetPoint" />
            <Array as="points">
              <mxPoint x="525" y="-339" />
              <mxPoint x="637" y="-339" />
            </Array>
          </mxGeometry>
        </mxCell>
      </root>
    </mxGraphModel>
  </diagram>
</mxfile>
